<svg width="162" height="37" viewBox="0 0 162 37" fill="none" xmlns="http://www.w3.org/2000/svg">
<path d="M40.4755 15.4481C41.0463 14.9153 41.6742 14.4825 42.3591 14.1495C43.0441 13.8165 43.848 13.65 44.7708 13.65C45.57 13.65 46.2787 13.7879 46.8971 14.0638C47.5155 14.3302 48.0292 14.7108 48.4383 15.2055C48.8569 15.6907 49.1709 16.2757 49.3802 16.9607C49.599 17.6362 49.7084 18.383 49.7084 19.2012V28.5197H46.1836V19.2012C46.1836 18.3069 45.979 17.6172 45.57 17.132C45.1609 16.6373 44.5377 16.3899 43.7006 16.3899C43.0917 16.3899 42.5209 16.5279 41.9881 16.8037C41.4554 17.0796 40.9511 17.4554 40.4755 17.9311V28.5197H36.9507V7.31396H40.4755V15.4481Z" fill="#22A4D7"/>
<path d="M61.7797 19.515C61.7797 19.0584 61.7131 18.6302 61.5799 18.2307C61.4562 17.8216 61.266 17.4648 61.0091 17.1604C60.7522 16.856 60.424 16.6181 60.0244 16.4469C59.6344 16.2661 59.1777 16.1758 58.6545 16.1758C57.6365 16.1758 56.8326 16.4659 56.2428 17.0463C55.6625 17.6266 55.2914 18.4495 55.1297 19.515H61.7797ZM55.0583 21.6413C55.1154 22.3929 55.2486 23.0446 55.4579 23.5963C55.6672 24.1386 55.9431 24.5905 56.2856 24.952C56.6281 25.304 57.0324 25.5704 57.4986 25.7512C57.9743 25.9224 58.4975 26.008 59.0683 26.008C59.6392 26.008 60.1291 25.9414 60.5382 25.8083C60.9568 25.6751 61.3183 25.5276 61.6227 25.3659C61.9367 25.2041 62.2078 25.0567 62.4361 24.9235C62.674 24.7903 62.9023 24.7237 63.1211 24.7237C63.416 24.7237 63.6348 24.8331 63.7775 25.0519L64.7907 26.3363C64.4007 26.7929 63.9631 27.1782 63.4779 27.4921C62.9927 27.7966 62.4837 28.0439 61.9509 28.2342C61.4277 28.415 60.8902 28.5434 60.3384 28.6195C59.7961 28.6956 59.2681 28.7337 58.7544 28.7337C57.7364 28.7337 56.7898 28.5672 55.9146 28.2342C55.0393 27.8917 54.2782 27.3923 53.6313 26.7358C52.9844 26.0699 52.4754 25.2517 52.1044 24.2813C51.7334 23.3014 51.5479 22.1693 51.5479 20.885C51.5479 19.886 51.7096 18.949 52.033 18.0737C52.3565 17.189 52.8179 16.4231 53.4173 15.7762C54.0261 15.1198 54.7634 14.6013 55.6292 14.2207C56.5044 13.8402 57.4891 13.6499 58.5831 13.6499C59.5059 13.6499 60.3574 13.7974 61.1375 14.0923C61.9176 14.3872 62.5884 14.8201 63.1497 15.3909C63.711 15.9522 64.1486 16.6467 64.4625 17.4743C64.786 18.2925 64.9477 19.2296 64.9477 20.2856C64.9477 20.8184 64.8906 21.1799 64.7765 21.3702C64.6623 21.5509 64.4435 21.6413 64.12 21.6413H55.0583Z" fill="#22A4D7"/>
<path d="M70.4193 7.31396V28.5197H66.8945V7.31396H70.4193Z" fill="#22A4D7"/>
<path d="M76.7855 7.31396V28.5197H73.2607V7.31396H76.7855Z" fill="#22A4D7"/>
<path d="M86.0624 13.6499C87.147 13.6499 88.1317 13.8259 89.0164 14.1779C89.9107 14.5299 90.6718 15.0294 91.2997 15.6763C91.9371 16.3232 92.427 17.1128 92.7695 18.0452C93.112 18.9775 93.2833 20.0192 93.2833 21.1704C93.2833 22.331 93.112 23.3775 92.7695 24.3099C92.427 25.2422 91.9371 26.0366 91.2997 26.693C90.6718 27.3494 89.9107 27.8537 89.0164 28.2057C88.1317 28.5577 87.147 28.7337 86.0624 28.7337C84.9684 28.7337 83.9742 28.5577 83.0799 28.2057C82.1857 27.8537 81.4198 27.3494 80.7824 26.693C80.1545 26.0366 79.6646 25.2422 79.3126 24.3099C78.9701 23.3775 78.7988 22.331 78.7988 21.1704C78.7988 20.0192 78.9701 18.9775 79.3126 18.0452C79.6646 17.1128 80.1545 16.3232 80.7824 15.6763C81.4198 15.0294 82.1857 14.5299 83.0799 14.1779C83.9742 13.8259 84.9684 13.6499 86.0624 13.6499ZM86.0624 26.0223C87.2802 26.0223 88.1792 25.6132 88.7595 24.795C89.3494 23.9769 89.6443 22.7782 89.6443 21.1989C89.6443 19.6197 89.3494 18.4162 88.7595 17.5885C88.1792 16.7608 87.2802 16.347 86.0624 16.347C84.8257 16.347 83.9076 16.7656 83.3083 17.6028C82.7184 18.4305 82.4235 19.6292 82.4235 21.1989C82.4235 22.7687 82.7184 23.9674 83.3083 24.795C83.9076 25.6132 84.8257 26.0223 86.0624 26.0223Z" fill="#22A4D7"/>
<path d="M121.806 13.8782L117.154 28.5195H114.328C114.005 28.5195 113.781 28.3102 113.657 27.8916L111.032 19.4293C110.946 19.1439 110.865 18.8633 110.789 18.5874C110.722 18.3019 110.665 18.0166 110.618 17.7311C110.561 18.0166 110.494 18.3067 110.418 18.6016C110.351 18.887 110.275 19.1724 110.19 19.4578L107.521 27.8916C107.407 28.3102 107.155 28.5195 106.765 28.5195H104.053L99.4155 13.8782H102.227C102.484 13.8782 102.702 13.94 102.883 14.0637C103.064 14.1873 103.183 14.3443 103.24 14.5346L105.338 22.3548C105.442 22.7829 105.533 23.2014 105.609 23.6105C105.694 24.0196 105.766 24.4287 105.823 24.8378C105.928 24.4287 106.037 24.0196 106.151 23.6105C106.275 23.2014 106.403 22.7829 106.536 22.3548L108.962 14.5061C109.019 14.3158 109.129 14.1588 109.291 14.0351C109.462 13.9115 109.666 13.8496 109.904 13.8496H111.46C111.707 13.8496 111.916 13.9115 112.088 14.0351C112.268 14.1588 112.387 14.3158 112.444 14.5061L114.799 22.3548C114.923 22.7829 115.037 23.2062 115.141 23.6248C115.256 24.0339 115.365 24.443 115.47 24.8521C115.593 24.0434 115.769 23.211 115.998 22.3548L118.153 14.5346C118.219 14.3443 118.338 14.1873 118.509 14.0637C118.681 13.94 118.885 13.8782 119.123 13.8782H121.806Z" fill="#22A4D7"/>
<path d="M130.664 22.2688C129.646 22.3164 128.79 22.4067 128.095 22.5399C127.401 22.6636 126.844 22.8253 126.426 23.0251C126.007 23.2249 125.707 23.458 125.527 23.7244C125.346 23.9907 125.256 24.2809 125.256 24.5949C125.256 25.2132 125.436 25.6556 125.798 25.922C126.169 26.1884 126.649 26.3216 127.239 26.3216C127.962 26.3216 128.585 26.1931 129.109 25.9363C129.641 25.6699 130.16 25.2703 130.664 24.7376V22.2688ZM122.587 15.9185C124.271 14.3773 126.297 13.6067 128.666 13.6067C129.522 13.6067 130.288 13.7494 130.964 14.0348C131.639 14.3107 132.21 14.7007 132.676 15.205C133.142 15.6997 133.494 16.2943 133.732 16.9888C133.979 17.6832 134.103 18.4443 134.103 19.272V28.5192H132.505C132.172 28.5192 131.915 28.4716 131.734 28.3765C131.553 28.2718 131.411 28.0673 131.306 27.7629L130.992 26.7069C130.621 27.0398 130.26 27.3348 129.908 27.5916C129.556 27.839 129.189 28.0483 128.809 28.2195C128.428 28.3908 128.019 28.5192 127.582 28.6048C127.153 28.7 126.678 28.7475 126.155 28.7475C125.536 28.7475 124.965 28.6667 124.442 28.5049C123.919 28.3337 123.467 28.0816 123.086 27.7486C122.706 27.4156 122.411 27.0018 122.202 26.5071C121.992 26.0124 121.888 25.4368 121.888 24.7804C121.888 24.4094 121.95 24.0431 122.073 23.6816C122.197 23.3105 122.397 22.9585 122.673 22.6255C122.958 22.2926 123.324 21.9786 123.771 21.6837C124.219 21.3888 124.766 21.1319 125.412 20.9131C126.069 20.6943 126.83 20.5183 127.696 20.3851C128.561 20.2424 129.551 20.1568 130.664 20.1282V19.272C130.664 18.2921 130.455 17.5691 130.036 17.1029C129.617 16.6272 129.013 16.3894 128.224 16.3894C127.653 16.3894 127.177 16.456 126.797 16.5892C126.426 16.7224 126.097 16.8746 125.812 17.0459C125.527 17.2076 125.265 17.355 125.027 17.4882C124.799 17.6214 124.542 17.688 124.257 17.688C124.009 17.688 123.8 17.6262 123.629 17.5025C123.457 17.3693 123.319 17.2171 123.215 17.0459L122.587 15.9185Z" fill="#22A4D7"/>
<path d="M141.367 28.7478C140.092 28.7478 139.112 28.3911 138.427 27.6776C137.752 26.9545 137.414 25.9604 137.414 24.6951V16.5181H135.915C135.725 16.5181 135.563 16.4563 135.43 16.3326C135.297 16.2089 135.23 16.0234 135.23 15.7761V14.3776L137.585 13.9923L138.327 9.99658C138.375 9.80631 138.465 9.65884 138.598 9.55419C138.731 9.44954 138.903 9.39722 139.112 9.39722H140.939V14.0065H147.032L147.788 9.99658C147.836 9.80631 147.922 9.65884 148.045 9.55419C148.178 9.44954 148.354 9.39722 148.573 9.39722H150.386V14.0065H154.296V16.5181H150.386V24.4524C150.386 24.9091 150.5 25.2659 150.728 25.5227C150.956 25.7796 151.266 25.908 151.656 25.908C151.865 25.908 152.046 25.8842 152.198 25.8367C152.35 25.7796 152.479 25.7225 152.583 25.6654C152.697 25.6083 152.797 25.556 152.883 25.5085C152.969 25.4514 153.054 25.4228 153.14 25.4228C153.244 25.4228 153.33 25.4514 153.397 25.5085C153.463 25.556 153.535 25.6321 153.611 25.7368L154.667 27.4492C154.153 27.8773 153.563 28.2008 152.897 28.4196C152.231 28.6384 151.542 28.7478 150.828 28.7478C149.553 28.7478 148.573 28.3911 147.888 27.6776C147.203 26.9545 146.861 25.9604 146.861 24.6951V16.5181H140.939V24.4524C140.939 24.9091 141.048 25.2659 141.267 25.5227C141.495 25.7796 141.804 25.908 142.194 25.908C142.413 25.908 142.594 25.8842 142.737 25.8367C142.889 25.7796 143.017 25.7225 143.122 25.6654C143.236 25.6083 143.336 25.556 143.422 25.5085C143.507 25.4514 143.593 25.4228 143.679 25.4228C143.783 25.4228 143.869 25.4514 143.935 25.5085C144.002 25.556 144.073 25.6321 144.149 25.7368L145.205 27.4492C144.692 27.8773 144.102 28.2008 143.436 28.4196C142.77 28.6384 142.08 28.7478 141.367 28.7478Z" fill="#22A4D7"/>
<g clip-path="url(#clip0)">
<path d="M15.603 9.38382C12.3204 10.4504 10.5238 13.9767 11.5903 17.2593C12.556 20.2313 16.5088 22.2841 17.4593 25.2096L23.4033 23.2783C22.4226 20.26 24.4441 16.3687 23.4784 13.3966C22.4119 10.114 18.8858 8.31719 15.603 9.38382ZM21.894 18.0651C21.6843 19.4345 21.4715 20.8387 21.6044 22.2201L18.2855 23.2985C17.5937 22.142 16.6154 21.1458 15.6591 20.1729C14.5218 19.0135 13.4474 17.9186 13.0763 16.7765C12.2775 14.3182 13.6276 11.6686 16.0859 10.8699C18.5441 10.0711 21.1938 11.4211 21.9925 13.8794C22.3595 15.0085 22.1327 16.4941 21.894 18.0651ZM24.6105 26.9937C24.7439 27.4042 24.5198 27.8444 24.1091 27.9779L23.9726 28.0222C23.9476 28.9865 23.332 29.8733 22.3628 30.1882C21.3934 30.5032 20.3745 30.1475 19.7873 29.3821L19.6509 29.4264C19.2402 29.5598 18.8 29.3355 18.6666 28.925C18.5331 28.5143 18.7574 28.0738 19.168 27.9403L23.6262 26.4918C24.0369 26.3583 24.477 26.583 24.6105 26.9937ZM23.8862 24.7646C24.0197 25.1754 23.7955 25.6153 23.3848 25.7488L18.9266 27.1973C18.516 27.3307 18.0758 27.1067 17.9423 26.6959C17.8089 26.2852 18.0332 25.8449 18.4438 25.7115L22.902 24.2629C23.3128 24.1295 23.7528 24.3539 23.8862 24.7646ZM8.52625 12.6139L10.1155 12.9525C9.95596 13.4488 9.84354 13.957 9.78554 14.4796L8.20182 14.1438L8.52625 12.6139ZM15.1202 7.89788C14.8649 7.98085 14.6414 8.10805 14.4017 8.21478L13.8943 6.65323L15.3804 6.17037L15.8878 7.73192C15.6312 7.78642 15.3757 7.81488 15.1202 7.89788ZM11.2519 10.7222L10.0438 9.63551L11.0909 8.47365L12.2934 9.55737C11.9047 9.91165 11.5597 10.3013 11.2519 10.7222ZM23.3063 10.0865C22.952 9.69783 22.5611 9.35317 22.1403 9.04561L23.2269 7.83735L24.3886 8.88463L23.3063 10.0865ZM19.9092 7.90777C19.4149 7.74903 18.9052 7.63704 18.3842 7.5784L18.72 5.99487L20.2472 6.32028L19.9092 7.90777ZM10.4241 18.4598L8.85966 18.9681L8.37685 17.4821L9.9384 16.9748C9.99294 17.2313 10.0213 17.4868 10.1043 17.7422C10.1864 17.9947 10.315 18.2225 10.4241 18.4598ZM26.2092 11.688L26.692 13.1739L25.1277 13.6822C25.0764 13.4262 25.0466 13.1662 24.9646 12.9137C24.8816 12.6583 24.7544 12.435 24.6477 12.1953L26.2092 11.688ZM25.2646 16.1727L26.8669 16.5121L26.5421 18.0408L25.0978 17.7337C25.1711 17.2137 25.2273 16.6951 25.2646 16.1727ZM11.7722 20.5597C12.1066 20.9615 12.4578 21.3511 12.8216 21.7303L11.8416 22.8173L10.6802 21.7714L11.7722 20.5597Z" fill="#22A4D7"/>
<path d="M12.4538 17.3894L17.84 23.8539L22.6696 22.2846L23.0974 14.7525L21.3981 10.7867L15.352 9.87608L11.7389 13.9251L12.4538 17.3894Z" fill="#22A4D7"/>
</g>
<defs>
<clipPath id="clip0">
<rect width="25" height="25" fill="white" transform="translate(6 5.80005)"/>
</clipPath>
</defs>
</svg>
